<?xml version="1.0" encoding="UTF-8"?>
<svg version="1.1" xmlns="http://www.w3.org/2000/svg" width="952" height="210">
<path d="M0 0 C314.16 0 628.32 0 952 0 C952 69.3 952 138.6 952 210 C637.84 210 323.68 210 0 210 C0 140.7 0 71.4 0 0 Z " fill="#FEFEFE" transform="translate(0,0)"/>
<path d="M0 0 C5.61 0 11.22 0 17 0 C17 28.05 17 56.1 17 85 C11.39 85 5.78 85 0 85 C0 83.35 0 81.7 0 80 C-0.70382812 80.433125 -1.40765625 80.86625 -2.1328125 81.3125 C-10.15890961 85.8389673 -16.82717781 87.52190165 -26 86 C-34.43304596 83.31309872 -41.21081358 78.50113536 -46 71 C-48.84407787 65.26035317 -49.51751167 59.97600654 -49.4375 53.625 C-49.43065186 52.79081543 -49.42380371 51.95663086 -49.41674805 51.09716797 C-49.2138169 43.30370005 -47.7186319 37.41770867 -42.8125 31.25 C-34.98009162 24.9840733 -29.42153812 21.81014716 -19.25 21.6875 C-18.46367188 21.65849609 -17.67734375 21.62949219 -16.8671875 21.59960938 C-11.03572089 21.53664503 -7.82854942 22.73041691 -3 26 C-2.01 26.66 -1.02 27.32 0 28 C0 18.76 0 9.52 0 0 Z " fill="#656160" transform="translate(774,61)"/>
<path d="M0 0 C4.77590805 3.61837199 9.26340193 7.66520579 11.1875 13.4375 C11.88061902 20.47095366 11.73646424 26.75427959 7.1875 32.4375 C4.33821489 35.00725111 1.35314217 37.27295834 -1.8125 39.4375 C-0.87975891 40.56644876 0.05890122 41.69050876 1 42.8125 C1.52207031 43.43898437 2.04414062 44.06546875 2.58203125 44.7109375 C4.26975739 46.6596048 4.26975739 46.6596048 7.1875 48.4375 C7.435 47.756875 7.6825 47.07625 7.9375 46.375 C9.42947908 42.86884917 11.25585511 39.72129632 13.1875 36.4375 C18.58121278 38.3300308 23.2958961 40.48215598 28.1875 43.4375 C26.45781143 48.34560106 23.69771481 51.94225067 20.55078125 56.03515625 C19.03002705 58.26425952 19.03002705 58.26425952 19.1640625 60.41796875 C20.67791802 63.40523327 22.8450321 65.37385999 25.25 67.6875 C26.16910156 68.57953125 27.08820313 69.4715625 28.03515625 70.390625 C28.74542969 71.06609375 29.45570313 71.7415625 30.1875 72.4375 C26.40352482 76.32604099 22.64232273 79.38026872 18.1875 82.4375 C14.41912425 80.74338371 11.90678439 78.43326008 8.96875 75.58203125 C7.26085829 74.22817963 7.26085829 74.22817963 5.2109375 74.609375 C2.33868644 75.78489088 -0.05755911 77.44781337 -2.6171875 79.18359375 C-9.62032386 83.1836058 -16.95765138 83.26022395 -24.8125 82.4375 C-32.19351727 80.29011338 -37.57417936 75.79498096 -41.8125 69.4375 C-44.33938677 64.14469662 -44.70031408 59.20829153 -43.8125 53.4375 C-40.88977786 46.64646914 -35.51458468 41.9383841 -29.8125 37.4375 C-30.32766675 34.47529119 -30.80428561 32.45187518 -32.3125 29.8125 C-34.79656883 24.22334514 -35.73862283 18.68125684 -34.03515625 12.71484375 C-30.77902253 5.4461008 -26.04397568 1.50622144 -19 -1.9375 C-12.11304312 -3.2878837 -6.13119038 -3.88377769 0 0 Z " fill="#656160" transform="translate(538.8125,64.5625)"/>
<path d="M0 0 C0 0.66 0 1.32 0 2 C1.32 2.66 2.64 3.32 4 4 C4.33 2.35 4.66 0.7 5 -1 C10.61 -1 16.22 -1 22 -1 C22 19.46 22 39.92 22 61 C16.39 61 10.78 61 5 61 C4.67 59.35 4.34 57.7 4 56 C2.700625 56.928125 2.700625 56.928125 1.375 57.875 C-6.24404802 62.67217838 -14.53390506 63.20554312 -23.3046875 61.5703125 C-30.63571097 59.18552173 -37.07968269 54.1490616 -40.9375 47.5 C-45.25339161 38.63009863 -46.74412441 29.43145875 -44.125 19.7734375 C-40.2768591 9.7733345 -35.14012562 3.48616143 -25.4296875 -1.08984375 C-16.53068889 -4.42339146 -8.80437033 -2.67474542 0 0 Z " fill="#676362" transform="translate(689,85)"/>
<path d="M0 0 C0 0.66 0 1.32 0 2 C0.66 2 1.32 2 2 2 C2 0.02 2 -1.96 2 -4 C7.28 -4 12.56 -4 18 -4 C18 16.46 18 36.92 18 58 C12.72 58 7.44 58 2 58 C1.67 56.35 1.34 54.7 1 53 C0.38511719 53.34933594 -0.22976563 53.69867188 -0.86328125 54.05859375 C-2.07564453 54.74115234 -2.07564453 54.74115234 -3.3125 55.4375 C-4.51326172 56.11619141 -4.51326172 56.11619141 -5.73828125 56.80859375 C-11.81521857 60.00974381 -18.30796055 59.71206618 -25 59 C-34.21588183 56.08235517 -40.27332073 50.98493567 -45.30859375 42.8984375 C-49.65305427 34.14938552 -49.71545012 22.61309827 -46.89453125 13.3828125 C-42.70020971 4.36445895 -37.16851478 -0.54689686 -28.0625 -4.25390625 C-18.48114367 -7.71988932 -8.20394675 -6.0867992 0 0 Z " fill="#656160" transform="translate(387,88)"/>
<path d="M0 0 C7.78981592 5.38746048 12.2582623 11.56820546 14.55859375 20.76953125 C14.55859375 25.05953125 14.55859375 29.34953125 14.55859375 33.76953125 C-1.61140625 33.76953125 -17.78140625 33.76953125 -34.44140625 33.76953125 C-31.57416828 39.85300053 -31.57416828 39.85300053 -26.44140625 42.76953125 C-20.54922316 44.73359228 -13.75800002 44.69616876 -8.00390625 42.39453125 C-7.15828125 41.85828125 -6.31265625 41.32203125 -5.44140625 40.76953125 C-3.11328125 39.5 -3.11328125 39.5 -0.44140625 38.76953125 C2.234375 39.78125 2.234375 39.78125 4.87109375 41.45703125 C5.75410156 41.99714844 6.63710938 42.53726563 7.546875 43.09375 C8.21074219 43.64675781 8.87460937 44.19976562 9.55859375 44.76953125 C9.55859375 48.3691811 9.01709632 48.74304096 6.55859375 51.20703125 C-1.89926289 59.32176998 -10.95080486 60.23286052 -22.22265625 60.0546875 C-27.3004183 59.83191972 -31.15503505 58.48266291 -35.44140625 55.76953125 C-36.98828125 54.90328125 -36.98828125 54.90328125 -38.56640625 54.01953125 C-45.18988913 48.83593595 -50.03304936 43.21967262 -51.44140625 34.76953125 C-52.57846928 24.41993717 -51.54680843 16.35998349 -45.44140625 7.76953125 C-34.13240253 -5.57772313 -15.10357497 -8.75064656 0 0 Z " fill="#666261" transform="translate(889.44140625,87.23046875)"/>
<path d="M0 0 C7.48750912 4.35414932 12.66920838 9.84871742 16 17.875 C17.5 23.5625 17.5 23.5625 17.5 35.5625 C1.33 35.5625 -14.84 35.5625 -31.5 35.5625 C-29.3218164 42.3506627 -29.3218164 42.3506627 -25.75 44.4765625 C-22.1533866 45.67831553 -19.28761069 45.96241849 -15.5 45.9375 C-14.324375 45.94523437 -13.14875 45.95296875 -11.9375 45.9609375 C-7.22757337 45.41501419 -3.85718522 43.91968522 -0.5 40.5625 C4.08251425 40.83205966 8.72294947 43.00328352 12.5 45.5625 C12.83 46.5525 13.16 47.5425 13.5 48.5625 C6.92366216 55.90008595 -0.18700075 61.15841505 -10.22265625 61.80078125 C-19.08704706 62.02154781 -26.35065744 61.50516249 -34.5 57.5625 C-34.5 56.9025 -34.5 56.2425 -34.5 55.5625 C-35.37978516 55.17964844 -35.37978516 55.17964844 -36.27734375 54.7890625 C-41.68284404 51.80606234 -46.18958364 45.96902077 -48.06640625 40.09375 C-49.48272976 31.82548304 -50.29725175 20.81910234 -45.5 13.5625 C-40.75288172 7.25230619 -36.02447975 2.24045798 -28.5 -0.4375 C-27.58863281 -0.788125 -26.67726563 -1.13875 -25.73828125 -1.5 C-17.30577995 -3.9412549 -7.98753524 -3.66857535 0 0 Z " fill="#666261" transform="translate(310.5,85.4375)"/>
<path d="M0 0 C0.0772418 4.55726628 -0.00703588 8.53557076 -1 13 C-2.15628906 13.16435547 -2.15628906 13.16435547 -3.3359375 13.33203125 C-4.33882813 13.49058594 -5.34171875 13.64914063 -6.375 13.8125 C-7.87160156 14.03873047 -7.87160156 14.03873047 -9.3984375 14.26953125 C-12.3287364 14.78772298 -12.3287364 14.78772298 -14 18 C-14.39013716 19.9896995 -14.73202649 21.99019869 -15 24 C-11.37 24 -7.74 24 -4 24 C-4 28.62 -4 33.24 -4 38 C-7.63 38 -11.26 38 -15 38 C-15 53.51 -15 69.02 -15 85 C-20.61 85 -26.22 85 -32 85 C-32 69.49 -32 53.98 -32 38 C-34.31 38 -36.62 38 -39 38 C-39 33.38 -39 28.76 -39 24 C-36.69 24 -34.38 24 -32 24 C-32.103125 23.05125 -32.20625 22.1025 -32.3125 21.125 C-32.3125 14.6377377 -28.57538807 9.05675665 -24.75 4.0625 C-18.38225053 -0.7133121 -7.5156729 -3.75783645 0 0 Z " fill="#676362" transform="translate(457,61)"/>
<path d="M0 0 C5.61 0 11.22 0 17 0 C17 28.38 17 56.76 17 86 C11.39 86 5.78 86 0 86 C0 57.62 0 29.24 0 0 Z " fill="#676362" transform="translate(808,60)"/>
<path d="M0 0 C5.61 0 11.22 0 17 0 C17 28.38 17 56.76 17 86 C11.39 86 5.78 86 0 86 C0 57.62 0 29.24 0 0 Z " fill="#676362" transform="translate(614,60)"/>
<path d="M0 0 C5.61 0 11.22 0 17 0 C17 28.05 17 56.1 17 85 C11.39 85 5.78 85 0 85 C0 56.95 0 28.9 0 0 Z " fill="#686564" transform="translate(232,61)"/>
<path d="M0 0 C4.14654632 4.37691 6.07570533 8.31026989 6.3125 14.3125 C6.18172811 18.92797836 5.43054806 23.0211028 3 27 C-3.27682879 32.09992339 -9.1376782 32.81101314 -17 32 C-21.4364407 29.82211093 -24.24218913 27.08564574 -27 23 C-28.79455979 17.36674608 -28.73172631 11.28126438 -26.9375 5.6875 C-20.56109596 -3.15718948 -9.40372375 -6.19790883 0 0 Z " fill="#FCFBFB" transform="translate(769,100)"/>
<path d="M0 0 C3.77729214 3.64457647 5.75166066 6.87554455 6.16796875 12.11328125 C6.21197881 17.06881439 5.91569638 21.34759451 4 26 C-0.46588218 30.46588218 -5.17135457 32.2861185 -11.4375 32.375 C-16.42655947 32.2677084 -19.24234931 31.48270064 -23 28 C-27.6325511 21.99020398 -28.92687661 16.49334047 -28 9 C-25.4565527 3.91310541 -21.43572878 -0.5111842 -16.125 -2.8125 C-9.79174258 -3.37131683 -5.44663171 -3.63108781 0 0 Z " fill="#FCFBFB" transform="translate(383,100)"/>
<path d="M0 0 C4.52438906 0.08536583 7.67058648 1.40904357 11.125 4.3125 C15.91641019 9.84105022 15.83559526 15.60743291 15.64453125 22.76171875 C15.01506108 27.06388706 13.94854677 29.2576955 10.75390625 32.1484375 C5.55081159 35.86671618 0.36355232 35.90804255 -5.875 35.3125 C-10.41151391 34.12259471 -13.04624693 32.59166963 -15.8125 28.875 C-18.74726542 23.66192984 -18.63724153 18.12960643 -17.875 12.3125 C-16.24905165 7.03978179 -13.33936709 4.37322329 -8.875 1.3125 C-5.86628478 0.23244838 -3.21045985 0.25890805 0 0 Z " fill="#FCFCFC" transform="translate(678.875,96.6875)"/>
<path d="M0 0 C1.32 0 2.64 0 4 0 C4.26103516 0.73412109 4.52207031 1.46824219 4.79101562 2.22460938 C11.9149039 22.16495611 11.9149039 22.16495611 21.04980469 41.22900391 C22.01943041 43.03621485 22.93922221 44.86249566 23.8515625 46.69921875 C31.93962695 62.77453563 42.88588509 78.18047096 55.81640625 90.734375 C58 93 58 93 58 95 C58.66 95 59.32 95 60 95 C60 95.66 60 96.32 60 97 C60.55429688 97.23847656 61.10859375 97.47695312 61.6796875 97.72265625 C64.53555445 99.29482543 66.6890623 101.26875205 69.125 103.4375 C81.54942969 114.07918352 96.1214005 121.42704908 111 128 C111 128.99 111 129.98 111 131 C86.36251614 127.86432024 58.05157042 102.66657642 43 84 C42.26523438 83.1028125 41.53046875 82.205625 40.7734375 81.28125 C29.39634492 66.97861933 18.9085512 50.95735295 12 34 C11.3956025 32.66558916 10.78859733 31.33235785 10.1796875 30 C7.78698363 24.63034007 5.75233539 19.14996246 3.75 13.625 C3.20472656 12.14966797 3.20472656 12.14966797 2.6484375 10.64453125 C2.30554688 9.70222656 1.96265625 8.75992188 1.609375 7.7890625 C1.29967773 6.94037598 0.98998047 6.09168945 0.67089844 5.21728516 C0 3 0 3 0 0 Z " fill="#6C9B55" transform="translate(75,67)"/>
<path d="M0 0 C3.70806596 -0.11674705 7.4156554 -0.18743274 11.125 -0.25 C12.17171875 -0.28351563 13.2184375 -0.31703125 14.296875 -0.3515625 C20.54744004 -0.43068358 24.27340901 -0.2376333 29 4 C31.40935753 6.953406 32.0140477 8.29761516 31.9375 12.125 C31 15 31 15 29.3125 16.875 C26.07593462 18.44954532 24.60406162 18.60067694 21 18 C12.67603446 14.20962284 5.83930858 7.94620299 -1 2 C-0.67 1.34 -0.34 0.68 0 0 Z " fill="#78A74C" transform="translate(86,148)"/>
<path d="M0 0 C21.10317977 -0.87524709 21.10317977 -0.87524709 28.3125 4.6875 C30.56987848 7.03654868 31.11199309 8.33597928 32.1875 11.5625 C32 15 32 15 30.5 17.9375 C28 20 28 20 24.625 20.5625 C17.0670284 19.3897113 12.27801388 13.56038526 7.125 8.3125 C6.43664062 7.62349609 5.74828125 6.93449219 5.0390625 6.22460938 C0 1.14055525 0 1.14055525 0 0 Z " fill="#76A64A" transform="translate(68,121)"/>
<path d="M0 0 C21.50255148 1.50895098 21.50255148 1.50895098 27.4375 7.75 C29.50327771 12.04681764 29.69703549 14.27564835 29 19 C26.85205126 21.64362921 25.46974104 21.92851767 22.125 22.4375 C15.6438695 21.53014173 11.70777511 16.91011278 7.8125 12 C7.38775391 11.47921875 6.96300781 10.9584375 6.52539062 10.421875 C5.33723678 8.95839469 4.1680069 7.47960943 3 6 C2.10861328 4.88625 2.10861328 4.88625 1.19921875 3.75 C0 2 0 2 0 0 Z " fill="#74A449" transform="translate(56,92)"/>
<path d="M0 0 C19.54008575 3.20807378 19.54008575 3.20807378 25.3203125 9.54296875 C28.07452225 13.57180115 28.51942684 16.06544501 28 21 C25.13841447 23.77487082 23.47272427 24 19.5 24 C13.27899082 22.22256881 9.09375668 16.5555971 6 11 C6 10.01 6 9.02 6 8 C5.34 8 4.68 8 4 8 C2.68 5.36 1.36 2.72 0 0 Z " fill="#7DAC48" transform="translate(46,62)"/>
<path d="M0 0 C0.66 0 1.32 0 2 0 C1.19208952 5.51378081 -0.33465142 10.65829245 -1.96484375 15.9765625 C-4.59448715 25.56304715 -5.36145316 35.09274449 -5.3125 45 C-5.30831055 46.17191895 -5.30412109 47.34383789 -5.29980469 48.55126953 C-5.03236704 69.41994122 -0.76946306 88.95825121 8.8125 107.625 C10 110 10 110 10 112 C10.66 112 11.32 112 12 112 C13.2890625 113.64453125 13.2890625 113.64453125 14.625 115.8125 C15.07101563 116.52019531 15.51703125 117.22789062 15.9765625 117.95703125 C17 120 17 120 17 123 C16.01 123 15.02 123 14 123 C12.50713579 120.99847843 11.25028712 119.0831995 10 116.9375 C8.9790625 115.24947266 8.9790625 115.24947266 7.9375 113.52734375 C5.99544239 110.12136139 4.49679556 106.62224525 3 103 C2.37602757 101.70783663 1.75115845 100.41610548 1.125 99.125 C-12.49011242 68.29537762 -12.63560652 32.39102478 -1 1 C-0.67 0.67 -0.34 0.34 0 0 Z " fill="#5B8C56" transform="translate(154,34)"/>
<path d="M0 0 C0.66 0 1.32 0 2 0 C2.29132813 0.59425781 2.58265625 1.18851563 2.8828125 1.80078125 C3.29273437 2.62964844 3.70265625 3.45851562 4.125 4.3125 C4.57488281 5.22515625 5.02476563 6.1378125 5.48828125 7.078125 C6.49053688 9.01530127 7.55081123 10.92360852 8.66796875 12.796875 C12.05218844 18.48815181 14.59865474 23.28565011 13 30 C11.4375 32.625 11.4375 32.625 9 34 C4.87330764 34.07369093 2.82318517 33.78510187 -0.1953125 30.90625 C-2.50979247 27.1790355 -2.46885204 24.80161986 -2.375 20.4375 C-2.36210938 19.73947266 -2.34921875 19.04144531 -2.3359375 18.32226562 C-2.15453999 12.11506943 -1.28840547 6.07391152 0 0 Z " fill="#689B42" transform="translate(67,29)"/>
<path d="M0 0 C0.05421223 3.04190863 0.09377548 6.08283999 0.125 9.125 C0.14175781 9.9809375 0.15851563 10.836875 0.17578125 11.71875 C0.22124475 17.62900501 0.01704211 22.59256264 -3.9375 27.3125 C-6 29 -6 29 -9 30 C-12.1779063 29.20552342 -13.69954486 28.34051582 -15.875 25.875 C-17.3683088 22.0587664 -17.10456683 18.87053321 -16 15 C-14.52140364 12.57861004 -12.70051271 10.67447115 -10.6875 8.6875 C-10.20087891 8.17638672 -9.71425781 7.66527344 -9.21289062 7.13867188 C-2.31557827 0 -2.31557827 0 0 0 Z " fill="#74A544" transform="translate(100,48)"/>
<path d="M0 0 C0.66 0 1.32 0 2 0 C2.50612064 2.8740422 3.00506541 5.74902873 3.5 8.625 C3.64308594 9.43324219 3.78617188 10.24148437 3.93359375 11.07421875 C5.88276016 22.49076488 5.88276016 22.49076488 3.0625 27.3125 C0.25974026 30.96458087 0.25974026 30.96458087 -2.75 31.375 C-6 31 -6 31 -8.875 28.9375 C-11 26 -11 26 -11.625 22.8125 C-10.27736758 14.59194222 -5.26957581 6.39766682 0 0 Z " fill="#639645" transform="translate(117,96)"/>
<path d="M0 0 C1.21321855 4.81341994 1.25583661 9.56650769 1.3125 14.5 C1.34150391 15.34175781 1.37050781 16.18351562 1.40039062 17.05078125 C1.44247675 21.16227161 1.33826033 23.42863419 -0.796875 27.03515625 C-3.79935612 29.71290093 -6.03029655 29.92782357 -10 30 C-13.93333333 27.37777778 -13.93333333 27.37777778 -15 24 C-15.3071612 15.24590591 -9.97690062 9.48973696 -4.39453125 3.1875 C-1.30664062 0 -1.30664062 0 0 0 Z " fill="#699B46" transform="translate(108,73)"/>
<path d="M0 0 C2 1 2 1 3.03515625 4.01953125 C3.37417969 5.27121094 3.71320313 6.52289063 4.0625 7.8125 C4.40410156 9.05644531 4.74570313 10.30039063 5.09765625 11.58203125 C5.39542969 12.70996094 5.69320312 13.83789062 6 15 C6.1959375 15.73734375 6.391875 16.4746875 6.59375 17.234375 C7.31407244 20.36500716 7.3929578 22.80020076 7 26 C4.375 29 4.375 29 1 31 C-2.1875 31.0625 -2.1875 31.0625 -5 30 C-7.7994516 27.29708122 -8.60395616 24.8212879 -9 21 C-7.07831256 13.57649508 -4.14740104 6.45151272 0 0 Z " fill="#619445" transform="translate(130,118)"/>
<path d="M0 0 C3.81516833 2.96102617 4.29925783 5.34308599 5.8828125 10.09375 C-4.0171875 10.09375 -13.9171875 10.09375 -24.1171875 10.09375 C-23.03648962 4.69026059 -22.14835 3.54903214 -18.1171875 0.09375 C-12.63350215 -1.73414512 -5.40609335 -2.31404734 0 0 Z " fill="#FCFCFC" transform="translate(880.1171875,98.90625)"/>
<path d="M0 0 C3.0828319 2.25573066 4.72068166 4.54555915 6.5625 7.875 C6.5625 8.535 6.5625 9.195 6.5625 9.875 C-3.6675 9.875 -13.8975 9.875 -24.4375 9.875 C-23.2768011 4.0715055 -22.07915536 3.21699186 -17.4375 -0.125 C-11.77103943 -2.01382019 -5.65180374 -1.84968122 0 0 Z " fill="#FCFCFC" transform="translate(303.4375,99.125)"/>
<path d="M0 0 C3.93459408 1.35144753 6.39829162 4.19824667 9.25 7.125 C10.14203125 8.03507812 11.0340625 8.94515625 11.953125 9.8828125 C12.62859375 10.58148438 13.3040625 11.28015625 14 12 C12.63016497 15.16115776 12.0109362 15.9927092 9 18 C4.13396294 19.1711479 0.32726445 19.78552386 -4.0625 17.1875 C-6.29641492 14.66533799 -6.92048643 13.58309954 -7.375 10.25 C-6.8528401 5.7246142 -5.15770622 4.2328897 -2 1 C-1.34 0.67 -0.68 0.34 0 0 Z " fill="#FAFAFA" transform="translate(519,113)"/>
<path d="M0 0 C11.27473133 8.82116285 11.27473133 8.82116285 12.55078125 14.4140625 C12.72532442 20.05456268 12.72532442 20.05456268 10.6484375 22.76171875 C9 24 9 24 6 24 C3 23 3 23 1.32421875 21.01953125 C-0.50879843 16.83981951 -0.32619117 13.19318497 -0.1875 8.6875 C-0.17396484 7.85154297 -0.16042969 7.01558594 -0.14648438 6.15429688 C-0.11131217 4.10258502 -0.05751048 2.05120725 0 0 Z " fill="#679946" transform="translate(132,41)"/>
<path d="M0 0 C2.5 2.3125 2.5 2.3125 5 5 C5 5.99 5 6.98 5 8 C5.66 8 6.32 8 7 8 C9.40007799 12.20013649 10.61962951 15.14623551 10 20 C8.8125 22.875 8.8125 22.875 7 25 C3.77943187 25.74320803 2.48194581 25.29958793 -0.3125 23.5625 C-4.66253983 16.95688396 -1.37463679 7.25366379 0 0 Z " fill="#558A45" transform="translate(140,18)"/>
<path d="M0 0 C1.98 0.66 3.96 1.32 6 2 C6 2.66 6 3.32 6 4 C6.886875 4.226875 7.77375 4.45375 8.6875 4.6875 C12.58620077 6.23226823 14.47227986 7.65448805 17 11 C17.49340272 14.57716974 17.66394664 16.81965042 15.875 20 C14 21 14 21 11.0625 21.0625 C7.82928123 19.94077104 6.6492077 18.96197211 4.9453125 16.01953125 C0 5.45454545 0 5.45454545 0 0 Z " fill="#61934A" transform="translate(127,89)"/>
<path d="M0 0 C13.47686117 9.95372233 13.47686117 9.95372233 15 13 C15.35294118 19.47058824 15.35294118 19.47058824 13 23 C7.97145569 23.64194183 7.97145569 23.64194183 5.4453125 21.97265625 C3.25387782 18.98164404 2.63002205 15.61569895 1.8125 12.0625 C1.63525391 11.34642578 1.45800781 10.63035156 1.27539062 9.89257812 C0.45477927 6.47389223 0 3.53526493 0 0 Z " fill="#528743" transform="translate(127,64)"/>
<path d="M0 0 C-0.11478413 2.06309376 -0.24226198 4.12548354 -0.375 6.1875 C-0.44460937 7.33605469 -0.51421875 8.48460937 -0.5859375 9.66796875 C-1.12263855 13.98689326 -2.17814202 16.92308265 -4.8125 20.375 C-7 22 -7 22 -9.625 21.875 C-12 21 -12 21 -14 19 C-14.34581765 14.15855285 -13.88717442 12.07983577 -10.76953125 8.28515625 C-2.53192253 0 -2.53192253 0 0 0 Z " fill="#85B34B" transform="translate(167,10)"/>
<path d="M0 0 C0.66 0 1.32 0 2 0 C1.19208952 5.51378081 -0.33465142 10.65829245 -1.96484375 15.9765625 C-4.91197908 26.77899011 -5.38507851 37.62863917 -5.625 48.75 C-5.66329461 50.23699914 -5.70235242 51.72397883 -5.7421875 53.2109375 C-5.83689905 56.80711089 -5.92136909 60.40343476 -6 64 C-6.66 64 -7.32 64 -8 64 C-12.5289124 43.58359027 -8.16438378 20.32837351 -1 1 C-0.67 0.67 -0.34 0.34 0 0 Z " fill="#53845C" transform="translate(154,34)"/>
<path d="M0 0 C-0.36521575 6.25904236 -0.99019599 11.44343875 -4 17 C-7.20808915 19.1387261 -8.27698497 19.47730962 -12 19 C-14.34549674 15.48175489 -14.57991403 14.14224306 -14 10 C-11.41333196 6.68583157 -4.70456562 0 0 0 Z " fill="#61934B" transform="translate(166,87)"/>
<path d="M0 0 C0.66 0.33 1.32 0.66 2 1 C0.35 5.29 -1.3 9.58 -3 14 C-3.66 14 -4.32 14 -5 14 C-5 14.66 -5 15.32 -5 16 C-6.98 16.66 -8.96 17.32 -11 18 C-13.0625 16.4375 -13.0625 16.4375 -15 14 C-15.0546875 10.59765625 -15.0546875 10.59765625 -14 7 C-11.57272834 5.2324798 -9.75099745 4.15640029 -7.0625 3 C-6.09280273 2.53400391 -6.09280273 2.53400391 -5.10351562 2.05859375 C-3.43901023 1.28770133 -1.7212175 0.63424257 0 0 Z " fill="#588C47" transform="translate(165,69)"/>
<path d="M0 0 C-0.90761062 1.75471386 -1.82650711 3.50359264 -2.75 5.25 C-3.26046875 6.22453125 -3.7709375 7.1990625 -4.296875 8.203125 C-5.97160392 10.95336791 -7.53289566 12.93924226 -10 15 C-13.125 15.375 -13.125 15.375 -16 15 C-18 13 -18 13 -18.4375 10.1875 C-18 7 -18 7 -16 4.25 C-10.98863519 0.49147639 -6.16358516 -0.11770736 0 0 Z " fill="#79A84C" transform="translate(170,52)"/>
<path d="M0 0 C1.63001953 0.01353516 1.63001953 0.01353516 3.29296875 0.02734375 C4.12441406 0.03894531 4.95585937 0.05054688 5.8125 0.0625 C-2.78610726 12.35058059 -2.78610726 12.35058059 -8.875 13.625 C-11.1875 13.0625 -11.1875 13.0625 -13.0625 11.375 C-14.1875 9.0625 -14.1875 9.0625 -14.125 6.5 C-12.9908326 3.55116475 -11.88385676 2.64859221 -9.1875 1.0625 C-5.90230525 -0.03256492 -3.45086585 -0.03710608 0 0 Z " fill="#487E47" transform="translate(170.1875,34.9375)"/>
<path d="M0 0 C0.66 0 1.32 0 2 0 C2.50612064 2.8740422 3.00506541 5.74902873 3.5 8.625 C3.64308594 9.43324219 3.78617187 10.24148437 3.93359375 11.07421875 C5.86921575 22.41143329 5.86921575 22.41143329 3.1875 27.3125 C1 30 1 30 -2 31 C-2 23.08 -2 15.16 -2 7 C-2.66 6.67 -3.32 6.34 -4 6 C-2.7260411 3.96166576 -1.38938077 1.96147874 0 0 Z " fill="#83B14C" transform="translate(117,96)"/>
<path d="M0 0 C2 3 2 3 2.0625 6.3125 C0.65188373 11.20816825 -1.95495343 13.11671615 -6 16 C-10.90914826 11.24921136 -10.90914826 11.24921136 -11.25 6.5625 C-11 3 -11 3 -10 1.0625 C-6.60529375 -0.74093769 -3.80755575 -0.36262436 0 0 Z " fill="#F8F8F8" transform="translate(532,77)"/>
<path d="M0 0 C2 1 2 1 3.03515625 4.01953125 C3.37417969 5.27121094 3.71320313 6.52289063 4.0625 7.8125 C4.40410156 9.05644531 4.74570313 10.30039063 5.09765625 11.58203125 C5.39542969 12.70996094 5.69320312 13.83789062 6 15 C6.19851562 15.73605469 6.39703125 16.47210938 6.6015625 17.23046875 C7.28483854 20.26501823 7.27605074 22.90823173 7 26 C5.125 28.4375 5.125 28.4375 3 30 C2.34 30 1.68 30 1 30 C0.67 21.75 0.34 13.5 0 5 C-0.99 6.485 -0.99 6.485 -2 8 C-2.66 7.67 -3.32 7.34 -4 7 C-2.68 4.69 -1.36 2.38 0 0 Z " fill="#7EAD4B" transform="translate(130,118)"/>
<path d="M0 0 C0 6.27 0 12.54 0 19 C-5 18 -5 18 -6.875 15.9375 C-8.37936417 12.00943799 -8.47889041 8.9650251 -7 5 C-2.75721154 0 -2.75721154 0 0 0 Z " fill="#598C4A" transform="translate(91,58)"/>
<path d="M0 0 C0.05421223 3.04190863 0.09377548 6.08283999 0.125 9.125 C0.14175781 9.9809375 0.15851563 10.836875 0.17578125 11.71875 C0.21285833 16.53877043 -0.00137028 20.51356545 -2 25 C-2.66 25.66 -3.32 26.32 -4 27 C-4.33 20.07 -4.66 13.14 -5 6 C-6.65 7.65 -8.3 9.3 -10 11 C-10.66 10.67 -11.32 10.34 -12 10 C-2.24657534 0 -2.24657534 0 0 0 Z " fill="#97C155" transform="translate(100,48)"/>
<path d="M0 0 C0.66 0 1.32 0 2 0 C2 9.24 2 18.48 2 28 C1.01 27.67 0.02 27.34 -1 27 C-2.52422793 23.95154415 -2.19053322 20.78010776 -2.1875 17.4375 C-2.18814453 16.71820313 -2.18878906 15.99890625 -2.18945312 15.2578125 C-2.13655856 9.9202704 -1.47172169 5.15102591 0 0 Z " fill="#477D47" transform="translate(67,32)"/>
<path d="M0 0 C5.875 3.75 5.875 3.75 7 6 C7.35294118 12.47058824 7.35294118 12.47058824 5 16 C1.875 16.1875 1.875 16.1875 -1 16 C-1.33 15.34 -1.66 14.68 -2 14 C-1.34 14 -0.68 14 0 14 C0 9.38 0 4.76 0 0 Z " fill="#77A846" transform="translate(135,71)"/>
<path d="M0 0 C1.6065676 0.25620684 3.2102483 0.53055871 4.8125 0.8125 C6.15248047 1.03873047 6.15248047 1.03873047 7.51953125 1.26953125 C10.18321256 2.05395393 11.25690322 2.88627799 13 5 C12.67 5.66 12.34 6.32 12 7 C11.77532169 8.53668865 11.59203195 10.07968054 11.4375 11.625 C11.35371094 12.44226563 11.26992188 13.25953125 11.18359375 14.1015625 C11.12300781 14.72804688 11.06242187 15.35453125 11 16 C10.34 16 9.68 16 9 16 C6.95830515 13.09451118 6 11.59857954 6 8 C5.34 8 4.68 8 4 8 C2.68 5.36 1.36 2.72 0 0 Z " fill="#55884A" transform="translate(46,62)"/>
<path d="M0 0 C0 5.94 0 11.88 0 18 C-5 17 -5 17 -6.375 15.4375 C-7.30455367 11.81224069 -7.11301791 8.53505688 -6 5 C-1.83333333 0 -1.83333333 0 0 0 Z " fill="#568A44" transform="translate(100,84)"/>
<path d="M0 0 C6.83068417 5.00103663 6.83068417 5.00103663 7.625 9.6875 C7 13 7 13 5.875 15 C3.06863762 16.49672661 0.99840718 15.73294398 -2 15 C-1.34 14.67 -0.68 14.34 0 14 C0 9.38 0 4.76 0 0 Z " fill="#7EAD4B" transform="translate(137,94)"/>
<path d="M0 0 C0.05429959 1.74965358 0.09292823 3.49979787 0.125 5.25 C0.14820313 6.22453125 0.17140625 7.1990625 0.1953125 8.203125 C-0.00137219 11.0196498 -0.55431084 12.60949036 -2 15 C-6.875 14.125 -6.875 14.125 -8 13 C-7.83485272 8.04558168 -7.7314667 5.90026671 -4.5625 2 C-2 0 -2 0 0 0 Z " fill="#4B8047" transform="translate(161,16)"/>
<path d="M0 0 C0.66 0.33 1.32 0.66 2 1 C2 1.99 2 2.98 2 4 C2.66 4 3.32 4 4 4 C6.40007799 8.20013649 7.61962951 11.14623551 7 16 C5.8125 18.875 5.8125 18.875 4 21 C1.3125 21.3125 1.3125 21.3125 -1 21 C-0.34 20.67 0.32 20.34 1 20 C0.67 13.4 0.34 6.8 0 0 Z " fill="#82B04D" transform="translate(143,22)"/>
<path d="M0 0 C1.23814813 4.85274185 1.2198495 9.65016697 1.25 14.625 C1.270625 15.48351562 1.29125 16.34203125 1.3125 17.2265625 C1.31765625 18.0515625 1.3228125 18.8765625 1.328125 19.7265625 C1.34214355 20.84925537 1.34214355 20.84925537 1.35644531 21.99462891 C1 24 1 24 -2 27 C-2.33 19.74 -2.66 12.48 -3 5 C-3.99 5.99 -4.98 6.98 -6 8 C-6.66 7.67 -7.32 7.34 -8 7 C-6.8572081 5.83035398 -5.71068285 4.66435444 -4.5625 3.5 C-3.92441406 2.8503125 -3.28632812 2.200625 -2.62890625 1.53125 C-1 0 -1 0 0 0 Z " fill="#98C352" transform="translate(108,73)"/>
<path d="M0 0 C0.66 0 1.32 0 2 0 C1.36223955 4.3525507 0.34354858 8.41929336 -0.9375 12.625 C-2.81271861 19.03483817 -4.07998555 25.39042249 -5 32 C-5.99 31.67 -6.98 31.34 -8 31 C-5.31064572 5.31064572 -5.31064572 5.31064572 0 0 Z " fill="#4D8052" transform="translate(154,34)"/>
<path d="M0 0 C0.66 0.33 1.32 0.66 2 1 C0.35 5.29 -1.3 9.58 -3 14 C-3.66 14 -4.32 14 -5 14 C-5 14.66 -5 15.32 -5 16 C-5.66 16 -6.32 16 -7 16 C-7 12.37 -7 8.74 -7 5 C-7.66 4.67 -8.32 4.34 -9 4 C-7.54618103 3.30300448 -6.08677047 2.61766134 -4.625 1.9375 C-3.40683594 1.36322266 -3.40683594 1.36322266 -2.1640625 0.77734375 C-1.44992188 0.52082031 -0.73578125 0.26429687 0 0 Z " fill="#6EA046" transform="translate(165,69)"/>
<path d="M0 0 C2.23404926 2.23404926 2.92100286 3.9496423 4.0625 6.875 C4.40410156 7.73867187 4.74570313 8.60234375 5.09765625 9.4921875 C5.87535983 11.65359745 6.49511162 13.76183502 7 16 C7.66 16 8.32 16 9 16 C10.2890625 17.64453125 10.2890625 17.64453125 11.625 19.8125 C12.07101563 20.52019531 12.51703125 21.22789062 12.9765625 21.95703125 C14 24 14 24 14 27 C13.01 27 12.02 27 11 27 C9.50713579 24.99847843 8.25028712 23.0831995 7 20.9375 C6.319375 19.81214844 5.63875 18.68679687 4.9375 17.52734375 C1.94868298 12.27652063 -0.17461636 6.75697918 -2 1 C-1.34 0.67 -0.68 0.34 0 0 Z " fill="#7EA95E" transform="translate(157,130)"/>
<path d="M0 0 C3.97468077 5.29957436 5.47202834 8.30005893 5.3203125 14.8671875 C5 17 5 17 3.25 19.625 C1 21 1 21 -1.25 20.75 C-1.8275 20.5025 -2.405 20.255 -3 20 C-2.01 20 -1.02 20 0 20 C0 13.4 0 6.8 0 0 Z " fill="#89B749" transform="translate(75,42)"/>
<path d="M0 0 C-0.36557577 6.26521225 -1.03153635 11.41928833 -4 17 C-4.66 17.33 -5.32 17.66 -6 18 C-6.04898438 17.14535156 -6.09796875 16.29070312 -6.1484375 15.41015625 C-6.22320312 14.30542969 -6.29796875 13.20070313 -6.375 12.0625 C-6.44460937 10.96035156 -6.51421875 9.85820313 -6.5859375 8.72265625 C-6.72257813 7.82417969 -6.85921875 6.92570312 -7 6 C-7.66 5.67 -8.32 5.34 -9 5 C-7.68921847 4.16396622 -6.37632511 3.3312426 -5.0625 2.5 C-3.96615234 1.80390625 -3.96615234 1.80390625 -2.84765625 1.09375 C-1 0 -1 0 0 0 Z " fill="#78A848" transform="translate(166,87)"/>
<path d="M0 0 C3.96 0 7.92 0 12 0 C8.6473889 4.67806201 5.7486611 8.64800393 1 12 C0.67 8.04 0.34 4.08 0 0 Z " fill="#71A248" transform="translate(164,35)"/>
<path d="M0 0 C0.66 0 1.32 0 2 0 C2.50612064 2.8740422 3.00506541 5.74902873 3.5 8.625 C3.64308594 9.43324219 3.78617187 10.24148437 3.93359375 11.07421875 C5.85014205 22.29971591 5.85014205 22.29971591 3.5625 26.875 C3.046875 27.57625 2.53125 28.2775 2 29 C1.67 29 1.34 29 1 29 C0.67 19.43 0.34 9.86 0 0 Z " fill="#9CC55A" transform="translate(117,96)"/>
<path d="M0 0 C3 2 3 2 4 5 C4.07051114 7.73865287 4.09357765 10.45027588 4.0625 13.1875 C4.05798828 13.93708984 4.05347656 14.68667969 4.04882812 15.45898438 C4.03706354 17.30602383 4.01912865 19.15302213 4 21 C3.01 21 2.02 21 1 21 C0.07811539 18.23434618 -0.11785222 16.61716298 -0.09765625 13.76953125 C-0.09282227 12.56586914 -0.09282227 12.56586914 -0.08789062 11.33789062 C-0.07951172 10.50451172 -0.07113281 9.67113281 -0.0625 8.8125 C-0.05798828 7.96751953 -0.05347656 7.12253906 -0.04882812 6.25195312 C-0.03705403 4.16793845 -0.0191189 2.08396023 0 0 Z " fill="#477D45" transform="translate(132,41)"/>
<path d="M0 0 C0.33 0 0.66 0 1 0 C1 7.92 1 15.84 1 24 C0.01 24.33 -0.98 24.66 -2 25 C-2.05786668 21.20839703 -2.09355054 17.41690689 -2.125 13.625 C-2.14175781 12.54476562 -2.15851563 11.46453125 -2.17578125 10.3515625 C-2.18222656 9.3203125 -2.18867187 8.2890625 -2.1953125 7.2265625 C-2.20578613 6.27346191 -2.21625977 5.32036133 -2.22705078 4.33837891 C-2 2 -2 2 0 0 Z " fill="#7FAF45" transform="translate(105,77)"/>
<path d="M0 0 C0 3.63 0 7.26 0 11 C-1.65 11.33 -3.3 11.66 -5 12 C-7 10 -7 10 -7.25 7.0625 C-7 4 -7 4 -5 1 C-3.28761215 0.42920405 -1.80987317 0 0 0 Z " fill="#508547" transform="translate(159,55)"/>
<path d="M0 0 C0.66 0 1.32 0 2 0 C2 5.28 2 10.56 2 16 C0.68 15.67 -0.64 15.34 -2 15 C-3.53597454 11.92805092 -3.2265038 9.39755707 -3 6 C-1.5 2.5625 -1.5 2.5625 0 0 Z " fill="#497F46" transform="translate(109,109)"/>
<path d="M0 0 C0.66 0 1.32 0 2 0 C3.90079664 4.01535068 4.23570807 7.18996591 4.1953125 11.61328125 C4.18886719 12.86044922 4.18242188 14.10761719 4.17578125 15.39257812 C4.15902344 16.68615234 4.14226562 17.97972656 4.125 19.3125 C4.11597656 20.62541016 4.10695313 21.93832031 4.09765625 23.29101562 C4.07411797 26.52752913 4.0412352 29.76367149 4 33 C3.01 32.67 2.02 32.34 1 32 C1.33 22.43 1.66 12.86 2 3 C1.34 3 0.68 3 0 3 C0 2.01 0 1.02 0 0 Z " fill="#5B8E4B" transform="translate(67,29)"/>
<path d="M0 0 C5 5 5 5 5.59375 7.3515625 C5.5628125 8.10179687 5.531875 8.85203125 5.5 9.625 C5.4896875 10.38039063 5.479375 11.13578125 5.46875 11.9140625 C4.89514197 14.46661825 4.0755362 15.43956037 2 17 C-0.1875 16.6875 -0.1875 16.6875 -2 16 C-1.01 16 -0.02 16 1 16 C0.67 10.72 0.34 5.44 0 0 Z " fill="#91BC55" transform="translate(139,48)"/>
<path d="M0 0 C0.33 0 0.66 0 1 0 C1.02694851 1.95825873 1.04637218 3.91662226 1.0625 5.875 C1.07410156 6.96554688 1.08570312 8.05609375 1.09765625 9.1796875 C1 12 1 12 0 14 C-0.99 13.67 -1.98 13.34 -3 13 C-4.26264601 8.70700357 -3.62950412 6.12168689 -2 2 C-1.34 2 -0.68 2 0 2 C0 1.34 0 0.68 0 0 Z " fill="#467C45" transform="translate(125,131)"/>
<path d="M0 0 C-0.06000106 1.6260287 -0.1487885 3.25101549 -0.25 4.875 C-0.29640625 5.77992187 -0.3428125 6.68484375 -0.390625 7.6171875 C-1 10 -1 10 -3.046875 11.3203125 C-3.69140625 11.54460937 -4.3359375 11.76890625 -5 12 C-4.96519531 11.30132812 -4.93039063 10.60265625 -4.89453125 9.8828125 C-4.86746094 8.97273438 -4.84039062 8.06265625 -4.8125 7.125 C-4.77769531 6.22007813 -4.74289063 5.31515625 -4.70703125 4.3828125 C-4.85205078 3.20332031 -4.85205078 3.20332031 -5 2 C-5.99 1.34 -6.98 0.68 -8 0 C-5.13822943 -1.43088528 -3.06624227 -0.59991697 0 0 Z " fill="#68994B" transform="translate(163,55)"/>
<path d="M0 0 C0.66 0 1.32 0 2 0 C2 6.93 2 13.86 2 21 C1.34 20.67 0.68 20.34 0 20 C0 14.39 0 8.78 0 3 C-0.66 2.67 -1.32 2.34 -2 2 C-1.34 1.34 -0.68 0.68 0 0 Z " fill="#77A745" transform="translate(115,100)"/>
<path d="M0 0 C0.33 0 0.66 0 1 0 C0.67 7.59 0.34 15.18 0 23 C-2.05098565 18.8980287 -2.27081004 17.08875301 -2.25 12.625 C-2.25515625 11.52414063 -2.2603125 10.42328125 -2.265625 9.2890625 C-1.99205949 5.90167774 -1.20501669 3.16555972 0 0 Z " fill="#3F754A" transform="translate(147,64)"/>
<path d="M0 0 C0.02687279 1.81242052 0.04633715 3.62495233 0.0625 5.4375 C0.07410156 6.44683594 0.08570313 7.45617188 0.09765625 8.49609375 C0 11 0 11 -1 12 C-2.66617115 12.04063832 -4.33388095 12.042721 -6 12 C-5.34 11.67 -4.68 11.34 -4 11 C-3.53348793 8.87423218 -3.53348793 8.87423218 -3.375 6.4375 C-3.30023438 5.61121094 -3.22546875 4.78492188 -3.1484375 3.93359375 C-3.09945312 3.29550781 -3.05046875 2.65742187 -3 2 C-5.475 3.485 -5.475 3.485 -8 5 C-5.96115496 0.48541456 -5.19128917 0 0 0 Z " fill="#588C4B" transform="translate(165,36)"/>
<path d="M0 0 C3.661215 5.4918225 4.66641296 12.469153 4 19 C3.01 19.66 2.02 20.32 1 21 C0.67 14.07 0.34 7.14 0 0 Z " fill="#96C150" transform="translate(133,125)"/>
<path d="M0 0 C1.32 0.99 2.64 1.98 4 3 C4.44468014 6.55744112 4.6843952 8.90496767 2.75 12 C1 13 1 13 -1.1875 12.6875 C-1.785625 12.460625 -2.38375 12.23375 -3 12 C-2.01 12 -1.02 12 0 12 C0 8.04 0 4.08 0 0 Z " fill="#93BF4E" transform="translate(140,97)"/>
<path d="M0 0 C0.33 0 0.66 0 1 0 C1 4.62 1 9.24 1 14 C-0.32 13.34 -1.64 12.68 -3 12 C-2.88601335 10.37419034 -2.75844341 8.74932843 -2.625 7.125 C-2.55539063 6.22007813 -2.48578125 5.31515625 -2.4140625 4.3828125 C-2 2 -2 2 0 0 Z " fill="#457C41" transform="translate(87,62)"/>
<path d="M0 0 C0.66 0 1.32 0 2 0 C1.27275406 5.52706913 -0.33445973 10.69960141 -2 16 C-2.99 15.67 -3.98 15.34 -5 15 C-4.54705135 13.24859857 -4.08741252 11.49892656 -3.625 9.75 C-3.36976563 8.77546875 -3.11453125 7.8009375 -2.8515625 6.796875 C-2.10401491 4.34162697 -1.22876183 2.24382595 0 0 Z " fill="#5F8F57" transform="translate(154,34)"/>
<path d="M0 0 C0.33 0 0.66 0 1 0 C1.08097324 2.27024968 1.13917704 4.54132075 1.1875 6.8125 C1.22230469 8.07707031 1.25710937 9.34164063 1.29296875 10.64453125 C1 14 1 14 -0.375 15.96875 C-2 17 -2 17 -4.1875 16.6875 C-4.785625 16.460625 -5.38375 16.23375 -6 16 C-5.01 16 -4.02 16 -3 16 C-2.80083984 14.39318359 -2.80083984 14.39318359 -2.59765625 12.75390625 C-2.4194944 11.35674231 -2.24109681 9.95960841 -2.0625 8.5625 C-1.93198242 7.50192383 -1.93198242 7.50192383 -1.79882812 6.41992188 C-1.11328125 1.11328125 -1.11328125 1.11328125 0 0 Z " fill="#73A44A" transform="translate(162,15)"/>
<path d="M0 0 C0.66 0 1.32 0 2 0 C2 3.96 2 7.92 2 12 C1.34 12 0.68 12 0 12 C-2.79921583 7.80117625 -1.86558093 5.87872887 -1 1 C-0.67 0.67 -0.34 0.34 0 0 Z " fill="#477C49" transform="translate(95,88)"/>
<path d="M0 0 C0.66 0.33 1.32 0.66 2 1 C0.35 5.29 -1.3 9.58 -3 14 C-3.33 14 -3.66 14 -4 14 C-4.125 6.375 -4.125 6.375 -3 3 C-3.66 2.67 -4.32 2.34 -5 2 C-2.625 0.9375 -2.625 0.9375 0 0 Z " fill="#8BB84F" transform="translate(165,69)"/>
<path d="M0 0 C0.66 0 1.32 0 2 0 C2.08142927 1.7492214 2.13938541 3.49954542 2.1875 5.25 C2.23970703 6.71179688 2.23970703 6.71179688 2.29296875 8.203125 C1.96075202 11.37468742 1.11327721 12.67040307 -1 15 C-1.02685412 12.68756208 -1.04632841 10.3750373 -1.0625 8.0625 C-1.07410156 6.77472656 -1.08570313 5.48695312 -1.09765625 4.16015625 C-1 1 -1 1 0 0 Z " fill="#5E9241" transform="translate(159,16)"/>
<path d="M0 0 C0.99 0 1.98 0 3 0 C3 3.3 3 6.6 3 10 C2.01 9.67 1.02 9.34 0 9 C-1.125 2.25 -1.125 2.25 0 0 Z " fill="#4E8151" transform="translate(151,76)"/>
<path d="M0 0 C0.66 0.33 1.32 0.66 2 1 C2 5.95 2 10.9 2 16 C0.68 15.67 -0.64 15.34 -2 15 C-1.34 14.67 -0.68 14.34 0 14 C0 9.38 0 4.76 0 0 Z " fill="#639646" transform="translate(133,69)"/>
<path d="M0 0 C2.48570024 3.72855036 2.30344304 6.69110878 2 11 C1.5 13.5 1.5 13.5 1 15 C0.34 15 -0.32 15 -1 15 C-1.10251672 9.87416389 -1.03590199 5.05002222 0 0 Z " fill="#4A7E4E" transform="translate(139,24)"/>
<path d="M0 0 C2.5 1.0625 2.5 1.0625 5 3 C5.3125 6.6875 5.3125 6.6875 5 10 C4.01 9.67 3.02 9.34 2 9 C1.26953125 6.93359375 1.26953125 6.93359375 0.8125 4.4375 C0.65394531 3.61121094 0.49539062 2.78492187 0.33203125 1.93359375 C0.16767578 0.97646484 0.16767578 0.97646484 0 0 Z " fill="#477E43" transform="translate(127,89)"/>
<path d="M0 0 C3 3 3 3 3.375 6.5 C3 10 3 10 0 13 C0 8.71 0 4.42 0 0 Z " fill="#95C14E" transform="translate(139,74)"/>
<path d="M0 0 C2 0.9375 2 0.9375 4 3 C4.36475845 6.02534949 4.22893297 8.96663814 4 12 C3.34 12 2.68 12 2 12 C0.86235649 7.73383684 0 4.43513689 0 0 Z " fill="#4B804C" transform="translate(127,64)"/>
<path d="M0 0 C0.33 0 0.66 0 1 0 C1 4.62 1 9.24 1 14 C-0.32 13.67 -1.64 13.34 -3 13 C-2.34 12.67 -1.68 12.34 -1 12 C-1.01160156 11.21753906 -1.02320313 10.43507813 -1.03515625 9.62890625 C-1.04417969 8.61699219 -1.05320313 7.60507813 -1.0625 6.5625 C-1.07410156 5.55316406 -1.08570313 4.54382813 -1.09765625 3.50390625 C-1 1 -1 1 0 0 Z " fill="#6FA049" transform="translate(136,94)"/>
<path d="M0 0 C-0.11487748 1.58409994 -0.24234508 3.16728963 -0.375 4.75 C-0.44460937 5.63171875 -0.51421875 6.5134375 -0.5859375 7.421875 C-1 10 -1 10 -3 14 C-3 10.37 -3 6.74 -3 3 C-3.66 2.67 -4.32 2.34 -5 2 C-1.125 0 -1.125 0 0 0 Z " fill="#9AC25C" transform="translate(166,87)"/>
<path d="M0 0 C0.33 0 0.66 0 1 0 C1 3.3 1 6.6 1 10 C-0.32 9.34 -1.64 8.68 -3 8 C-3 6.35 -3 4.7 -3 3 C-2.34 3 -1.68 3 -1 3 C-0.67 2.01 -0.34 1.02 0 0 Z " fill="#417840" transform="translate(155,95)"/>
<path d="M0 0 C4.42857143 5.14285714 4.42857143 5.14285714 5 9 C4.01 9 3.02 9 2 9 C0.68 6.36 -0.64 3.72 -2 1 C-1.34 0.67 -0.68 0.34 0 0 Z " fill="#A7CC69" transform="translate(166,148)"/>
<path d="M0 0 C-0.33 4.29 -0.66 8.58 -1 13 C-1.33 13 -1.66 13 -2 13 C-2.07347656 12.04287109 -2.07347656 12.04287109 -2.1484375 11.06640625 C-2.22320312 10.24011719 -2.29796875 9.41382813 -2.375 8.5625 C-2.44460937 7.73878906 -2.51421875 6.91507813 -2.5859375 6.06640625 C-2.72257813 5.38449219 -2.85921875 4.70257812 -3 4 C-3.66 3.67 -4.32 3.34 -5 3 C-1.125 0 -1.125 0 0 0 Z " fill="#9DC55D" transform="translate(167,10)"/>
<path d="M0 0 C0.33 0 0.66 0 1 0 C1.33 3.63 1.66 7.26 2 11 C1.01 11.33 0.02 11.66 -1 12 C-1.33 9.69 -1.66 7.38 -2 5 C-1.34 5 -0.68 5 0 5 C0 3.35 0 1.7 0 0 Z " fill="#669269" transform="translate(148,93)"/>
<path d="M0 0 C1.5 1.375 1.5 1.375 3 3 C3 3.66 3 4.32 3 5 C3.66 5 4.32 5 5 5 C5 5.99 5 6.98 5 8 C4.01 8 3.02 8 2 8 C0.25 5.6875 0.25 5.6875 -1 3 C-0.67 2.01 -0.34 1.02 0 0 Z " fill="#8FB85E" transform="translate(161,141)"/>
<path d="M0 0 C1.65 0 3.3 0 5 0 C3.68 2.64 2.36 5.28 1 8 C0.67 8 0.34 8 0 8 C0 5.36 0 2.72 0 0 Z " fill="#8CB94C" transform="translate(165,52)"/>
<path d="M0 0 C1.98 0 3.96 0 6 0 C4.02 2.97 4.02 2.97 2 6 C1.34 5.67 0.68 5.34 0 5 C0 3.35 0 1.7 0 0 Z " fill="#88B74A" transform="translate(170,35)"/>
<path d="M0 0 C2.62386487 3.06117568 3 3.73173127 3 8 C2.01 7.67 1.02 7.34 0 7 C-0.38133299 5.0085944 -0.71325582 3.00720923 -1 1 C-0.67 0.67 -0.34 0.34 0 0 Z " fill="#6D9B58" transform="translate(154,123)"/>
<path d="M0 0 C0.6875 1.8125 0.6875 1.8125 1 4 C-0.375 5.75 -0.375 5.75 -2 7 C-2.33 7 -2.66 7 -3 7 C-3.1875 4.625 -3.1875 4.625 -3 2 C-2.01 1.34 -1.02 0.68 0 0 Z " fill="#3B7440" transform="translate(155,57)"/>
<path d="M0 0 C0.33 0 0.66 0 1 0 C0.67 3.63 0.34 7.26 0 11 C-0.33 11 -0.66 11 -1 11 C-2.25 3.375 -2.25 3.375 0 0 Z " fill="#558754" transform="translate(150,48)"/>
<path d="M0 0 C0.66 0.33 1.32 0.66 2 1 C0.515 4.96 0.515 4.96 -1 9 C-1.33 9 -1.66 9 -2 9 C-2.25 3.375 -2.25 3.375 0 0 Z " fill="#659842" transform="translate(167,36)"/>
<path d="M0 0 C0.66 0 1.32 0 2 0 C1.67 1.98 1.34 3.96 1 6 C0.01 6 -0.98 6 -2 6 C-1.34 4.02 -0.68 2.04 0 0 Z " fill="#6A9959" transform="translate(154,34)"/>
</svg>
